<svg class="svg-icon" style="width: 1em; height: 1em;vertical-align: middle;fill: currentColor;overflow: hidden;" viewBox="0 0 1024 1024" version="1.1" xmlns="http://www.w3.org/2000/svg"><path d="M512 0C229.696 0 0 229.696 0 512s229.696 512 512 512 512-229.696 512-512S794.304 0 512 0z m0 981.333333C253.205333 981.333333 42.666667 770.794667 42.666667 512S253.205333 42.666667 512 42.666667s469.333333 210.538667 469.333333 469.333333-210.538667 469.333333-469.333333 469.333333z" fill="#010101" /><path d="M783.488 240.490667a21.312 21.312 0 0 0-30.165333 0l-198.250667 198.272A84.202667 84.202667 0 0 0 512 426.666667c-47.061333 0-85.333333 38.272-85.333333 85.333333s38.272 85.333333 85.333333 85.333333 85.333333-38.272 85.333333-85.333333a84.48 84.48 0 0 0-12.096-43.093333l198.250667-198.250667a21.312 21.312 0 0 0 0-30.165333zM512 554.666667c-23.530667 0-42.666667-19.136-42.666667-42.666667s19.136-42.666667 42.666667-42.666667c23.509333 0 42.666667 19.136 42.666667 42.666667s-19.157333 42.666667-42.666667 42.666667zM210.944 519.893333a21.333333 21.333333 0 0 0-21.333333-21.333333h-85.333334a21.333333 21.333333 0 1 0 0 42.666667h85.333334a21.333333 21.333333 0 0 0 21.333333-21.333334zM208.170667 614.762667l-78.869334 32.64a21.333333 21.333333 0 1 0 16.341334 39.424l78.869333-32.64a21.333333 21.333333 0 1 0-16.341333-39.424zM894.613333 647.402667l-78.805333-32.661334a21.333333 21.333333 0 0 0-16.341333 39.424l78.805333 32.661334a21.248 21.248 0 0 0 27.882667-11.541334 21.312 21.312 0 0 0-11.541334-27.882666zM917.290667 490.709333L832.021333 490.666667H832a21.333333 21.333333 0 0 0 0 42.666666l85.290667 0.042667a21.333333 21.333333 0 1 0 0-42.666667zM807.616 410.88c2.730667 0 5.504-0.533333 8.170667-1.621333l78.826666-32.618667a21.333333 21.333333 0 1 0-16.341333-39.424l-78.826667 32.618667a21.333333 21.333333 0 0 0 8.170667 41.045333zM626.282667 236.053333a21.248 21.248 0 0 0 27.882666-11.541333l32.661334-78.805333a21.333333 21.333333 0 1 0-39.424-16.341334l-32.661334 78.805334a21.312 21.312 0 0 0 11.541334 27.882666zM509.610667 221.226667a21.333333 21.333333 0 0 0 21.333333-21.333334v-85.333333a21.333333 21.333333 0 1 0-42.666667 0v85.333333a21.333333 21.333333 0 0 0 21.333334 21.333334zM369.834667 224.512a21.333333 21.333333 0 1 0 39.424-16.32l-32.618667-78.826667a21.333333 21.333333 0 1 0-39.424 16.32l32.618667 78.826667zM300.8 270.677333l-60.288-60.352a21.312 21.312 0 1 0-30.165333 30.144l60.288 60.352a21.269333 21.269333 0 0 0 30.165333 0.021334 21.312 21.312 0 0 0 0-30.165334zM224.533333 369.834667l-78.805333-32.682667a21.333333 21.333333 0 1 0-16.341333 39.402667l78.805333 32.682666a21.248 21.248 0 0 0 27.882667-11.52 21.333333 21.333333 0 0 0-11.541334-27.882666zM704 682.666667H320a21.333333 21.333333 0 0 0-21.333333 21.333333v128a21.333333 21.333333 0 0 0 21.333333 21.333333h384a21.333333 21.333333 0 0 0 21.333333-21.333333v-128a21.333333 21.333333 0 0 0-21.333333-21.333333z m-21.333333 128H341.333333v-85.333334h341.333334v85.333334z" fill="#010101" /></svg>